<svg width="24" height="24" viewBox="0 0 24 24" fill="none" xmlns="http://www.w3.org/2000/svg">
<path d="M11.528 1.6C11.5842 1.52847 11.6558 1.47063 11.7376 1.43086C11.8194 1.39109 11.9091 1.37042 12 1.37042C12.091 1.37042 12.1807 1.39109 12.2625 1.43086C12.3442 1.47063 12.4159 1.52847 12.472 1.6L14.281 3.9C14.3544 3.99354 14.454 4.06316 14.5671 4.10002C14.6801 4.13687 14.8016 4.1393 14.916 4.107L17.731 3.309C17.8184 3.28409 17.9104 3.27936 17.9999 3.29517C18.0894 3.31099 18.1741 3.34693 18.2477 3.40029C18.3213 3.45364 18.3818 3.52302 18.4246 3.60317C18.4675 3.68333 18.4915 3.77217 18.495 3.863L18.605 6.788C18.6097 6.90682 18.6495 7.02159 18.7195 7.11773C18.7894 7.21388 18.8864 7.28706 18.998 7.328L21.745 8.338C21.8303 8.36928 21.9074 8.41952 21.9704 8.48492C22.0334 8.55033 22.0808 8.62919 22.1089 8.71557C22.137 8.80194 22.1452 8.89357 22.1327 8.98355C22.1203 9.07353 22.0876 9.1595 22.037 9.235L20.407 11.666C20.3408 11.7648 20.3055 11.8811 20.3055 12C20.3055 12.1189 20.3408 12.2352 20.407 12.334L22.037 14.765C22.0876 14.8405 22.1203 14.9265 22.1327 15.0164C22.1452 15.1064 22.137 15.1981 22.1089 15.2844C22.0808 15.3708 22.0334 15.4497 21.9704 15.5151C21.9074 15.5805 21.8303 15.6307 21.745 15.662L18.998 16.672C18.8866 16.7131 18.7898 16.7863 18.72 16.8825C18.6503 16.9786 18.6106 17.0933 18.606 17.212L18.495 20.137C18.4915 20.2278 18.4675 20.3167 18.4246 20.3968C18.3818 20.477 18.3213 20.5464 18.2477 20.5997C18.1741 20.6531 18.0894 20.689 17.9999 20.7048C17.9104 20.7206 17.8184 20.7159 17.731 20.691L14.916 19.893C14.8015 19.8604 14.6799 19.8625 14.5667 19.8992C14.4534 19.9359 14.3536 20.0054 14.28 20.099L12.473 22.4C12.4169 22.4715 12.3452 22.5294 12.2635 22.5691C12.1817 22.6089 12.092 22.6296 12.001 22.6296C11.9101 22.6296 11.8204 22.6089 11.7386 22.5691C11.6568 22.5294 11.5852 22.4715 11.529 22.4L9.72003 20.1C9.64662 20.0065 9.54706 19.9368 9.434 19.9C9.32094 19.8631 9.19948 19.8607 9.08503 19.893L6.27003 20.691C6.18262 20.7159 6.0907 20.7206 6.00119 20.7048C5.91169 20.689 5.82695 20.6531 5.75337 20.5997C5.67979 20.5464 5.61929 20.477 5.57644 20.3968C5.5336 20.3167 5.50952 20.2278 5.50603 20.137L5.39603 17.212C5.39141 17.0932 5.35158 16.9784 5.28161 16.8823C5.21164 16.7861 5.11468 16.7129 5.00303 16.672L2.25603 15.662C2.17075 15.6307 2.09369 15.5805 2.03065 15.5151C1.96762 15.4497 1.92026 15.3708 1.89214 15.2844C1.86402 15.1981 1.85588 15.1064 1.86834 15.0164C1.88079 14.9265 1.91351 14.8405 1.96403 14.765L3.59403 12.334C3.66024 12.2352 3.69559 12.1189 3.69559 12C3.69559 11.8811 3.66024 11.7648 3.59403 11.666L1.96403 9.235C1.91351 9.1595 1.88079 9.07353 1.86834 8.98355C1.85588 8.89357 1.86402 8.80194 1.89214 8.71557C1.92026 8.62919 1.96762 8.55033 2.03065 8.48492C2.09369 8.41952 2.17075 8.36928 2.25603 8.338L5.00303 7.328C5.11449 7.2869 5.21124 7.21365 5.28102 7.11752C5.35081 7.02138 5.39049 6.9067 5.39503 6.788L5.50603 3.863C5.50952 3.77217 5.5336 3.68333 5.57644 3.60317C5.61929 3.52302 5.67979 3.45364 5.75337 3.40029C5.82695 3.34693 5.91169 3.31099 6.00119 3.29517C6.0907 3.27936 6.18262 3.28409 6.27003 3.309L9.08503 4.107C9.19948 4.1393 9.32094 4.13687 9.434 4.10002C9.54706 4.06316 9.64662 3.99354 9.72003 3.9L11.53 1.6H11.528Z" stroke="#14CA3C" stroke-width="1.5"/>
<path d="M9 12L11 14L15 10" stroke="#14CA3C" stroke-width="1.5" stroke-linecap="round" stroke-linejoin="round"/>
</svg>
