<svg width="24" height="24" viewBox="0 0 24 24" fill="none" xmlns="http://www.w3.org/2000/svg">
<path d="M22 5.09334C21.1067 3.26001 18.5334 1.76001 15.54 2.63334C14.1097 3.0465 12.8617 3.93253 12 5.14667C11.1384 3.93253 9.89039 3.0465 8.46003 2.63334C5.46003 1.77334 2.89337 3.26001 2.00003 5.09334C0.7467 7.66001 1.2667 10.5467 3.5467 13.6733C5.33337 16.12 7.8867 18.6 11.5934 21.48C11.7105 21.5714 11.8548 21.621 12.0034 21.621C12.1519 21.621 12.2962 21.5714 12.4134 21.48C16.1134 18.6067 18.6734 16.1467 20.46 13.6733C22.7334 10.5467 23.2534 7.66001 22 5.09334Z" fill="#F268AA"/>
</svg>
