<svg width="24" height="24" viewBox="0 0 24 24" fill="none" xmlns="http://www.w3.org/2000/svg">
<path d="M12 21.62C11.8527 21.6195 11.7097 21.5703 11.5934 21.48C7.8867 18.6 5.33337 16.12 3.5467 13.6733C1.2667 10.5467 0.7467 7.66001 2.00003 5.09334C2.89337 3.26001 5.46003 1.76001 8.46003 2.63334C9.89039 3.0465 11.1384 3.93253 12 5.14667C12.8617 3.93253 14.1097 3.0465 15.54 2.63334C18.5334 1.77334 21.1067 3.26001 22 5.09334C23.2534 7.66001 22.7334 10.5467 20.4534 13.6733C18.6667 16.12 16.1134 18.6 12.4067 21.48C12.2903 21.5703 12.1473 21.6195 12 21.62V21.62ZM6.75337 3.72001C6.03954 3.69222 5.33162 3.85937 4.7056 4.20351C4.07958 4.54764 3.5591 5.05577 3.20003 5.67334C2.1667 7.79334 2.63337 10.1533 4.6267 12.88C6.74508 15.6124 9.22564 18.0436 12 20.1067C14.774 18.0457 17.2545 15.6167 19.3734 12.8867C21.3734 10.1533 21.8334 7.79334 20.8 5.68001C20.1334 4.34667 18.1334 3.28667 15.9067 3.91334C15.1927 4.12434 14.5308 4.48248 13.9636 4.96472C13.3964 5.44696 12.9365 6.04261 12.6134 6.71334C12.5631 6.83561 12.4777 6.9402 12.3679 7.0138C12.2581 7.0874 12.1289 7.1267 11.9967 7.1267C11.8645 7.1267 11.7353 7.0874 11.6255 7.0138C11.5157 6.9402 11.4303 6.83561 11.38 6.71334C11.0594 6.04093 10.6002 5.44389 10.0326 4.96135C9.46507 4.47881 8.80194 4.12167 8.0867 3.91334C7.65335 3.78747 7.20462 3.72241 6.75337 3.72001V3.72001Z" fill="black"/>
</svg>
