<svg width="24" height="24" viewBox="0 0 24 24" fill="none" xmlns="http://www.w3.org/2000/svg">
<path d="M2 12C2 17.523 6.477 22 12 22C17.523 22 22 17.523 22 12C22 6.477 17.523 2 12 2" stroke="#3F5DFF" stroke-width="1.5" stroke-linecap="round" stroke-linejoin="round"/>
<path d="M11.5 15.5C11.5 15.5 13 13.5 16 13.5C19 13.5 20.5 15.5 20.5 15.5M3 4.00001C3 1.24601 7 1.24601 7 4.00001C7 5.96701 5 5.64001 5 8.00001M5 11.01L5.01 10.999" stroke="#3F5DFF" stroke-width="1.5" stroke-linecap="round" stroke-linejoin="round"/>
<path d="M17.5 9C17.3674 9 17.2402 8.94732 17.1464 8.85355C17.0527 8.75979 17 8.63261 17 8.5C17 8.36739 17.0527 8.24021 17.1464 8.14645C17.2402 8.05268 17.3674 8 17.5 8C17.6326 8 17.7598 8.05268 17.8536 8.14645C17.9473 8.24021 18 8.36739 18 8.5C18 8.63261 17.9473 8.75979 17.8536 8.85355C17.7598 8.94732 17.6326 9 17.5 9ZM10.5 9C10.3674 9 10.2402 8.94732 10.1464 8.85355C10.0527 8.75979 10 8.63261 10 8.5C10 8.36739 10.0527 8.24021 10.1464 8.14645C10.2402 8.05268 10.3674 8 10.5 8C10.6326 8 10.7598 8.05268 10.8536 8.14645C10.9473 8.24021 11 8.36739 11 8.5C11 8.63261 10.9473 8.75979 10.8536 8.85355C10.7598 8.94732 10.6326 9 10.5 9Z" fill="#3F5DFF" stroke="#3F5DFF" stroke-width="1.5" stroke-linecap="round" stroke-linejoin="round"/>
</svg>
